P3
1 11
255
0 0 0
23 23 23
46 46 46
69 69 69
92 92 92
115 115 115
139 139 139
162 162 162
185 185 185
208 208 208
231 231 231
